<?xml version="1.0" standalone="no"?>
<!DOCTYPE svg PUBLIC "-//W3C//DTD SVG 20010904//EN"
 "http://www.w3.org/TR/2001/REC-SVG-20010904/DTD/svg10.dtd">
<svg version="1.0" xmlns="http://www.w3.org/2000/svg"
 width="1080.000000pt" height="1080.000000pt" viewBox="0 0 1080.000000 1080.000000"
 preserveAspectRatio="xMidYMid meet">
<metadata>
Created by potrace 1.14, written by Peter Selinger 2001-2017
</metadata>
<g transform="translate(0.000000,1080.000000) scale(0.100000,-0.100000)"
fill="#000000" stroke="none">
<path d="M0 5400 l0 -5400 5400 0 5400 0 0 5400 0 5400 -5400 0 -5400 0 0
-5400z m6347 1598 l23 -21 0 -387 c0 -333 -2 -389 -16 -408 l-15 -22 -939 0
-939 0 -15 22 c-14 19 -16 75 -16 404 0 371 1 382 21 408 l20 26 927 0 926 0
23 -22z m-1449 -924 c148 -61 179 -261 57 -362 -125 -102 -306 -40 -345 120
-23 91 29 196 121 241 43 21 118 22 167 1z m588 -3 c179 -81 159 -348 -29
-400 -65 -19 -128 -7 -179 32 -73 56 -83 78 -83 171 0 71 3 87 24 118 25 36
79 78 115 90 41 12 112 7 152 -11z m580 3 c93 -44 146 -150 123 -247 -22 -93
-117 -167 -214 -167 -38 0 -123 40 -152 71 -72 79 -70 213 5 293 58 61 166 84
238 50z m-1101 -485 c28 -10 72 -32 98 -49 l48 -30 51 35 c66 46 145 69 238
69 93 0 172 -23 239 -69 l51 -35 51 35 c125 85 313 93 450 18 76 -41 142 -119
162 -190 22 -77 21 -95 -3 -121 l-21 -22 -928 0 c-919 0 -927 0 -949 20 -44
41 -15 153 61 236 108 119 295 161 452 103z m4263 -331 l-3 -83 -1282 -3
-1283 -2 0 85 0 85 1285 0 1286 0 -3 -82z m-5088 -23 l0 -85 -1285 0 -1285 0
0 85 0 85 1285 0 1285 0 0 -85z m-939 -547 c80 -47 132 -127 145 -220 9 -67
-9 -80 -104 -76 -80 3 -85 7 -97 61 -18 87 -164 118 -217 46 -28 -37 -41 -160
-34 -322 7 -161 20 -201 74 -224 78 -32 166 11 179 89 9 62 23 69 117 66 l81
-3 -2 -68 c-4 -128 -81 -228 -202 -264 -76 -22 -221 -14 -277 14 -126 66 -173
213 -161 508 10 260 50 353 177 410 27 12 64 15 155 13 110 -3 124 -5 166 -30z
m2673 -7 c27 -14 62 -43 76 -63 54 -74 65 -240 22 -323 -24 -48 -61 -83 -125
-120 -44 -25 -61 -28 -168 -33 l-119 -5 0 -171 c0 -121 -4 -176 -12 -184 -17
-17 -143 -16 -160 1 -19 20 -19 886 0 910 16 18 145 26 332 18 90 -3 112 -7
154 -30z m753 16 c81 -44 128 -122 142 -242 17 -134 9 -664 -10 -676 -8 -5
-46 -9 -85 -9 -98 0 -99 1 -99 169 l0 136 -132 3 -133 3 0 -140 c0 -77 -3
-146 -6 -155 -5 -13 -22 -16 -78 -16 -118 0 -110 -24 -103 336 3 170 11 336
17 368 23 119 80 200 162 230 61 22 279 18 325 -7z m1294 8 c25 -9 62 -29 82
-46 69 -57 122 -199 91 -246 -13 -20 -23 -23 -88 -23 -81 0 -92 6 -102 59 -20
100 -186 119 -231 27 -32 -67 3 -101 161 -157 127 -45 177 -72 209 -113 38
-49 49 -81 50 -151 3 -117 -47 -212 -135 -260 -45 -25 -67 -30 -144 -33 -108
-5 -178 12 -241 58 -52 38 -99 128 -109 207 -9 71 5 83 91 83 75 0 100 -16
109 -68 8 -52 43 -88 94 -97 86 -14 142 23 142 95 0 50 -28 74 -137 114 -122
46 -171 72 -216 115 -49 46 -63 73 -71 141 -9 71 20 169 65 224 53 63 115 86
235 86 64 0 117 -6 145 -15z m-4246 -5 c11 -18 5 -903 -6 -917 -15 -17 -150
-18 -167 -1 -17 17 -17 899 0 916 14 14 164 17 173 2z m387 -89 c33 -51 81
-130 106 -176 72 -127 144 -246 147 -243 2 2 6 114 8 250 3 136 8 252 12 258
3 5 42 10 85 10 65 0 81 -3 89 -17 9 -18 5 -856 -5 -900 -4 -21 -10 -23 -78
-23 -57 0 -76 4 -88 18 -8 9 -81 127 -162 261 l-146 243 -2 -183 c-2 -228 -5
-306 -12 -324 -4 -11 -24 -15 -78 -15 -40 0 -79 4 -86 9 -18 11 -18 897 0 918
8 10 32 13 81 11 l70 -3 59 -94z m1166 29 c6 -118 19 -110 -189 -110 l-180 0
3 -87 3 -88 177 -3 c203 -3 190 5 180 -107 l-7 -70 -177 -3 -178 -2 0 -110 0
-110 183 -2 182 -3 3 -65 c2 -35 0 -75 -3 -87 l-5 -23 -259 0 c-143 0 -266 3
-275 6 -14 5 -16 55 -16 458 0 342 3 455 12 464 9 9 80 12 278 10 l265 -3 3
-65z m1881 51 c7 -12 9 -143 5 -380 l-6 -361 126 0 126 0 0 -78 c0 -47 -5 -83
-12 -90 -14 -14 -395 -17 -417 -3 -11 7 -13 88 -10 457 2 247 7 455 12 462 6
8 37 12 88 12 67 0 80 -3 88 -19z"/>
<path d="M4560 6590 l0 -300 840 0 840 0 0 300 0 300 -840 0 -840 0 0 -300z
m903 155 c126 -61 220 -113 227 -124 17 -32 12 -58 -16 -80 -41 -32 -402 -211
-426 -211 -12 0 -30 7 -40 17 -16 15 -18 36 -18 238 0 226 3 245 40 258 8 3
15 6 16 6 0 1 98 -46 217 -104z"/>
<path d="M5310 6590 c0 -50 2 -90 5 -90 13 0 165 81 165 88 0 4 -38 27 -85 50
l-85 42 0 -90z"/>
<path d="M4760 5935 c-46 -49 -24 -126 40 -140 32 -7 84 15 94 40 34 91 -70
168 -134 100z"/>
<path d="M5342 5938 c-31 -34 -35 -68 -13 -105 26 -41 70 -51 114 -26 28 16
32 25 35 65 3 40 -1 49 -24 67 -35 28 -85 27 -112 -1z"/>
<path d="M5925 5935 c-41 -40 -33 -105 17 -131 58 -30 122 7 122 71 0 76 -87
113 -139 60z"/>
<path d="M4735 5477 c-73 -24 -125 -60 -146 -99 -9 -17 4 -18 211 -18 195 0
221 2 227 16 10 26 -9 47 -68 76 -66 33 -165 44 -224 25z"/>
<path d="M5313 5476 c-58 -19 -109 -52 -134 -87 l-20 -29 242 0 242 0 -25 33
c-58 74 -207 115 -305 83z"/>
<path d="M5905 5477 c-27 -7 -59 -18 -70 -24 -34 -19 -68 -61 -62 -77 6 -14
37 -16 227 -16 207 0 220 1 211 18 -43 80 -191 128 -306 99z"/>
<path d="M5564 4517 c-3 -8 -4 -54 -2 -103 l3 -89 93 1 c133 2 167 32 142 125
-16 59 -55 79 -153 79 -55 0 -79 -4 -83 -13z"/>
<path d="M6383 4530 c-35 -15 -55 -67 -63 -165 -4 -49 -4 -94 0 -98 4 -4 64
-6 135 -5 l128 3 -2 71 c-5 149 -33 195 -123 201 -29 1 -63 -1 -75 -7z"/>
</g>
</svg>
